<?xml version="1.0" standalone="no"?>
<!DOCTYPE svg PUBLIC "-//W3C//DTD SVG 20010904//EN"
 "http://www.w3.org/TR/2001/REC-SVG-20010904/DTD/svg10.dtd">
<svg version="1.0" xmlns="http://www.w3.org/2000/svg"
 width="192.000000pt" height="176.000000pt" viewBox="0 0 192.000000 176.000000"
 preserveAspectRatio="xMidYMid meet">

<g transform="translate(0.000000,176.000000) scale(0.100000,-0.100000)"
fill="#000000" stroke="none">
<path d="M203 1621 c-3 -12 -13 -21 -24 -21 -15 0 -19 -7 -19 -40 0 -32 -4
-40 -19 -40 -14 0 -20 -10 -26 -42 -6 -36 -8 -39 -15 -23 -7 17 -9 14 -9 -12
-1 -27 3 -33 20 -33 11 0 17 5 14 10 -3 6 4 10 15 10 13 0 24 8 27 20 5 17 18
26 25 18 1 -2 5 -280 8 -618 4 -506 7 -615 18 -612 8 1 16 -7 19 -18 5 -20 12
-20 707 -22 l701 -3 -3 -38 c-3 -36 -2 -38 20 -35 12 2 23 10 23 18 0 15 4 16
50 19 18 1 25 7 25 20 0 16 8 20 38 23 35 3 37 5 40 39 3 35 1 37 -32 43 -19
4 -37 13 -40 21 -3 8 -14 15 -25 15 -10 0 -21 9 -24 20 -7 28 -77 29 -77 1 0
-11 9 -21 21 -24 12 -3 19 -12 17 -19 -4 -11 -139 -13 -721 -16 l-717 -2 2
582 c2 453 6 582 15 585 7 3 17 -7 23 -21 5 -14 16 -26 25 -26 24 0 20 71 -5
93 -11 9 -20 28 -20 41 0 15 -7 26 -19 29 -13 3 -21 15 -23 38 -3 38 -27 51
-35 20z"/>
<path d="M875 1390 c-3 -5 -3 -10 2 -11 4 -1 -10 -7 -32 -13 -36 -12 -40 -16
-43 -50 l-3 -37 43 3 c27 2 42 8 41 15 -4 16 48 25 127 21 50 -2 65 -7 65 -18
0 -8 10 -16 21 -18 17 -2 23 -12 28 -43 4 -22 11 -38 18 -36 7 1 14 -6 16 -17
6 -30 -8 -106 -20 -103 -6 1 -14 -9 -18 -23 -3 -14 -12 -25 -20 -25 -8 0 -15
-7 -15 -15 0 -11 -15 -16 -59 -20 -55 -5 -60 -7 -67 -32 -7 -26 -4 -177 4
-223 2 -11 9 -20 15 -19 28 2 33 5 28 13 -3 5 3 11 14 14 18 5 20 14 20 86 l0
81 40 0 c27 0 43 5 46 15 3 8 21 17 40 21 23 4 34 12 34 23 0 9 9 24 20 34 18
15 20 29 20 141 0 102 -3 127 -15 134 -9 4 -19 21 -24 38 -6 24 -13 30 -40 32
-23 2 -35 10 -38 23 -5 17 -15 19 -124 19 -68 0 -120 -4 -124 -10z"/>
<path d="M950 641 c-23 -6 -25 -12 -25 -61 0 -50 2 -54 27 -61 33 -9 93 3 93
18 0 7 9 19 20 28 l20 15 -20 15 c-11 9 -20 20 -20 25 0 4 -2 10 -5 13 -11 9
-66 14 -90 8z"/>
</g>
</svg>
